<mxfile host="app.diagrams.net" modified="2020-12-27T13:50:50.372Z" agent="5.0 (Windows NT 10.0; Win64; x64) AppleWebKit/537.36 (KHTML, like Gecko) Chrome/87.0.4280.101 Safari/537.36" etag="4sUoKfr_gybGIKuhKBIy" version="14.1.2" type="github">
  <diagram id="C5RBs43oDa-KdzZeNtuy" name="Page-1">
    <mxGraphModel dx="1008" dy="1677" grid="1" gridSize="10" guides="1" tooltips="1" connect="1" arrows="1" fold="1" page="1" pageScale="1" pageWidth="827" pageHeight="1169" math="0" shadow="0">
      <root>
        <mxCell id="WIyWlLk6GJQsqaUBKTNV-0" />
        <mxCell id="WIyWlLk6GJQsqaUBKTNV-1" parent="WIyWlLk6GJQsqaUBKTNV-0" />
        <mxCell id="WIyWlLk6GJQsqaUBKTNV-2" value="" style="rounded=0;html=1;jettySize=auto;orthogonalLoop=1;fontSize=11;endArrow=block;endFill=0;endSize=8;strokeWidth=1;shadow=0;labelBackgroundColor=none;edgeStyle=orthogonalEdgeStyle;" parent="WIyWlLk6GJQsqaUBKTNV-1" source="WIyWlLk6GJQsqaUBKTNV-3" target="WIyWlLk6GJQsqaUBKTNV-6" edge="1">
          <mxGeometry relative="1" as="geometry" />
        </mxCell>
        <mxCell id="WIyWlLk6GJQsqaUBKTNV-3" value="カラオケ" style="rounded=1;whiteSpace=wrap;html=1;fontSize=12;glass=0;strokeWidth=1;shadow=0;" parent="WIyWlLk6GJQsqaUBKTNV-1" vertex="1">
          <mxGeometry x="160" y="80" width="120" height="40" as="geometry" />
        </mxCell>
        <mxCell id="WIyWlLk6GJQsqaUBKTNV-4" value="Yes" style="rounded=0;html=1;jettySize=auto;orthogonalLoop=1;fontSize=11;endArrow=block;endFill=0;endSize=8;strokeWidth=1;shadow=0;labelBackgroundColor=none;edgeStyle=orthogonalEdgeStyle;" parent="WIyWlLk6GJQsqaUBKTNV-1" source="WIyWlLk6GJQsqaUBKTNV-6" target="WIyWlLk6GJQsqaUBKTNV-10" edge="1">
          <mxGeometry y="20" relative="1" as="geometry">
            <mxPoint as="offset" />
          </mxGeometry>
        </mxCell>
        <mxCell id="WIyWlLk6GJQsqaUBKTNV-5" value="No" style="edgeStyle=orthogonalEdgeStyle;rounded=0;html=1;jettySize=auto;orthogonalLoop=1;fontSize=11;endArrow=block;endFill=0;endSize=8;strokeWidth=1;shadow=0;labelBackgroundColor=none;" parent="WIyWlLk6GJQsqaUBKTNV-1" source="WIyWlLk6GJQsqaUBKTNV-6" target="WIyWlLk6GJQsqaUBKTNV-7" edge="1">
          <mxGeometry y="10" relative="1" as="geometry">
            <mxPoint as="offset" />
          </mxGeometry>
        </mxCell>
        <mxCell id="WIyWlLk6GJQsqaUBKTNV-6" value="Lamp&lt;br&gt;plugged in?" style="rhombus;whiteSpace=wrap;html=1;shadow=0;fontFamily=Helvetica;fontSize=12;align=center;strokeWidth=1;spacing=6;spacingTop=-4;" parent="WIyWlLk6GJQsqaUBKTNV-1" vertex="1">
          <mxGeometry x="170" y="170" width="100" height="80" as="geometry" />
        </mxCell>
        <mxCell id="WIyWlLk6GJQsqaUBKTNV-7" value="Plug in lamp" style="rounded=1;whiteSpace=wrap;html=1;fontSize=12;glass=0;strokeWidth=1;shadow=0;" parent="WIyWlLk6GJQsqaUBKTNV-1" vertex="1">
          <mxGeometry x="320" y="190" width="120" height="40" as="geometry" />
        </mxCell>
        <mxCell id="WIyWlLk6GJQsqaUBKTNV-8" value="No" style="rounded=0;html=1;jettySize=auto;orthogonalLoop=1;fontSize=11;endArrow=block;endFill=0;endSize=8;strokeWidth=1;shadow=0;labelBackgroundColor=none;edgeStyle=orthogonalEdgeStyle;" parent="WIyWlLk6GJQsqaUBKTNV-1" source="WIyWlLk6GJQsqaUBKTNV-10" target="WIyWlLk6GJQsqaUBKTNV-11" edge="1">
          <mxGeometry x="0.3333" y="20" relative="1" as="geometry">
            <mxPoint as="offset" />
          </mxGeometry>
        </mxCell>
        <mxCell id="WIyWlLk6GJQsqaUBKTNV-9" value="Yes" style="edgeStyle=orthogonalEdgeStyle;rounded=0;html=1;jettySize=auto;orthogonalLoop=1;fontSize=11;endArrow=block;endFill=0;endSize=8;strokeWidth=1;shadow=0;labelBackgroundColor=none;" parent="WIyWlLk6GJQsqaUBKTNV-1" source="WIyWlLk6GJQsqaUBKTNV-10" target="WIyWlLk6GJQsqaUBKTNV-12" edge="1">
          <mxGeometry y="10" relative="1" as="geometry">
            <mxPoint as="offset" />
          </mxGeometry>
        </mxCell>
        <mxCell id="WIyWlLk6GJQsqaUBKTNV-10" value="Bulb&lt;br&gt;burned out?" style="rhombus;whiteSpace=wrap;html=1;shadow=0;fontFamily=Helvetica;fontSize=12;align=center;strokeWidth=1;spacing=6;spacingTop=-4;" parent="WIyWlLk6GJQsqaUBKTNV-1" vertex="1">
          <mxGeometry x="170" y="290" width="100" height="80" as="geometry" />
        </mxCell>
        <mxCell id="WIyWlLk6GJQsqaUBKTNV-11" value="Repair Lamp" style="rounded=1;whiteSpace=wrap;html=1;fontSize=12;glass=0;strokeWidth=1;shadow=0;" parent="WIyWlLk6GJQsqaUBKTNV-1" vertex="1">
          <mxGeometry x="160" y="430" width="120" height="40" as="geometry" />
        </mxCell>
        <mxCell id="Q46YlYpN7wn6KISYc_g0-37" style="edgeStyle=orthogonalEdgeStyle;rounded=0;orthogonalLoop=1;jettySize=auto;html=1;exitX=1;exitY=0.25;exitDx=0;exitDy=0;entryX=1;entryY=0.25;entryDx=0;entryDy=0;" edge="1" parent="WIyWlLk6GJQsqaUBKTNV-1" source="WIyWlLk6GJQsqaUBKTNV-12" target="WIyWlLk6GJQsqaUBKTNV-7">
          <mxGeometry relative="1" as="geometry" />
        </mxCell>
        <mxCell id="Q46YlYpN7wn6KISYc_g0-39" value="よろしく" style="edgeLabel;html=1;align=center;verticalAlign=middle;resizable=0;points=[];" vertex="1" connectable="0" parent="Q46YlYpN7wn6KISYc_g0-37">
          <mxGeometry x="0.2175" y="-1" relative="1" as="geometry">
            <mxPoint as="offset" />
          </mxGeometry>
        </mxCell>
        <mxCell id="WIyWlLk6GJQsqaUBKTNV-12" value="Replace Bulb" style="rounded=1;whiteSpace=wrap;html=1;fontSize=12;glass=0;strokeWidth=1;shadow=0;" parent="WIyWlLk6GJQsqaUBKTNV-1" vertex="1">
          <mxGeometry x="320" y="310" width="120" height="40" as="geometry" />
        </mxCell>
        <mxCell id="Q46YlYpN7wn6KISYc_g0-2" value="" style="edgeStyle=orthogonalEdgeStyle;rounded=0;orthogonalLoop=1;jettySize=auto;html=1;" edge="1" parent="WIyWlLk6GJQsqaUBKTNV-1" source="Q46YlYpN7wn6KISYc_g0-0" target="Q46YlYpN7wn6KISYc_g0-1">
          <mxGeometry relative="1" as="geometry" />
        </mxCell>
        <mxCell id="Q46YlYpN7wn6KISYc_g0-4" value="" style="edgeStyle=orthogonalEdgeStyle;rounded=0;orthogonalLoop=1;jettySize=auto;html=1;" edge="1" parent="WIyWlLk6GJQsqaUBKTNV-1" source="Q46YlYpN7wn6KISYc_g0-0" target="Q46YlYpN7wn6KISYc_g0-3">
          <mxGeometry relative="1" as="geometry" />
        </mxCell>
        <mxCell id="Q46YlYpN7wn6KISYc_g0-6" value="" style="edgeStyle=orthogonalEdgeStyle;rounded=0;orthogonalLoop=1;jettySize=auto;html=1;" edge="1" parent="WIyWlLk6GJQsqaUBKTNV-1" source="Q46YlYpN7wn6KISYc_g0-0" target="Q46YlYpN7wn6KISYc_g0-5">
          <mxGeometry relative="1" as="geometry" />
        </mxCell>
        <mxCell id="Q46YlYpN7wn6KISYc_g0-38" style="edgeStyle=orthogonalEdgeStyle;rounded=0;orthogonalLoop=1;jettySize=auto;html=1;exitX=1;exitY=0.25;exitDx=0;exitDy=0;entryX=0.86;entryY=-0.03;entryDx=0;entryDy=0;entryPerimeter=0;" edge="1" parent="WIyWlLk6GJQsqaUBKTNV-1" source="Q46YlYpN7wn6KISYc_g0-0" target="WIyWlLk6GJQsqaUBKTNV-7">
          <mxGeometry relative="1" as="geometry" />
        </mxCell>
        <mxCell id="Q46YlYpN7wn6KISYc_g0-40" value="Text" style="edgeLabel;html=1;align=center;verticalAlign=middle;resizable=0;points=[];" vertex="1" connectable="0" parent="Q46YlYpN7wn6KISYc_g0-38">
          <mxGeometry x="0.2083" relative="1" as="geometry">
            <mxPoint as="offset" />
          </mxGeometry>
        </mxCell>
        <mxCell id="Q46YlYpN7wn6KISYc_g0-0" value="" style="rounded=1;whiteSpace=wrap;html=1;arcSize=0;direction=south;" vertex="1" parent="WIyWlLk6GJQsqaUBKTNV-1">
          <mxGeometry x="410" y="-66" width="60" height="180" as="geometry" />
        </mxCell>
        <mxCell id="Q46YlYpN7wn6KISYc_g0-1" value="" style="whiteSpace=wrap;html=1;rounded=1;arcSize=0;" vertex="1" parent="WIyWlLk6GJQsqaUBKTNV-1">
          <mxGeometry x="240" y="30" width="120" height="60" as="geometry" />
        </mxCell>
        <mxCell id="Q46YlYpN7wn6KISYc_g0-20" value="" style="edgeStyle=orthogonalEdgeStyle;rounded=0;orthogonalLoop=1;jettySize=auto;html=1;" edge="1" parent="WIyWlLk6GJQsqaUBKTNV-1" source="Q46YlYpN7wn6KISYc_g0-3" target="Q46YlYpN7wn6KISYc_g0-19">
          <mxGeometry relative="1" as="geometry" />
        </mxCell>
        <mxCell id="Q46YlYpN7wn6KISYc_g0-27" value="" style="edgeStyle=orthogonalEdgeStyle;rounded=0;orthogonalLoop=1;jettySize=auto;html=1;" edge="1" parent="WIyWlLk6GJQsqaUBKTNV-1" source="Q46YlYpN7wn6KISYc_g0-3" target="Q46YlYpN7wn6KISYc_g0-19">
          <mxGeometry relative="1" as="geometry" />
        </mxCell>
        <mxCell id="Q46YlYpN7wn6KISYc_g0-30" value="" style="edgeStyle=orthogonalEdgeStyle;rounded=0;orthogonalLoop=1;jettySize=auto;html=1;" edge="1" parent="WIyWlLk6GJQsqaUBKTNV-1" source="Q46YlYpN7wn6KISYc_g0-3" target="Q46YlYpN7wn6KISYc_g0-29">
          <mxGeometry relative="1" as="geometry" />
        </mxCell>
        <mxCell id="Q46YlYpN7wn6KISYc_g0-3" value="" style="ellipse;whiteSpace=wrap;html=1;rounded=1;arcSize=0;" vertex="1" parent="WIyWlLk6GJQsqaUBKTNV-1">
          <mxGeometry x="60" y="-160" width="120" height="80" as="geometry" />
        </mxCell>
        <mxCell id="Q46YlYpN7wn6KISYc_g0-7" style="edgeStyle=orthogonalEdgeStyle;rounded=0;orthogonalLoop=1;jettySize=auto;html=1;" edge="1" parent="WIyWlLk6GJQsqaUBKTNV-1" source="Q46YlYpN7wn6KISYc_g0-5">
          <mxGeometry relative="1" as="geometry">
            <mxPoint x="670" y="50" as="targetPoint" />
          </mxGeometry>
        </mxCell>
        <mxCell id="Q46YlYpN7wn6KISYc_g0-5" value="" style="shape=cylinder;whiteSpace=wrap;html=1;boundedLbl=1;backgroundOutline=1;rounded=1;arcSize=0;" vertex="1" parent="WIyWlLk6GJQsqaUBKTNV-1">
          <mxGeometry x="550" width="60" height="100" as="geometry" />
        </mxCell>
        <mxCell id="Q46YlYpN7wn6KISYc_g0-14" value="" style="edgeStyle=orthogonalEdgeStyle;rounded=0;orthogonalLoop=1;jettySize=auto;html=1;" edge="1" parent="WIyWlLk6GJQsqaUBKTNV-1" source="Q46YlYpN7wn6KISYc_g0-8" target="Q46YlYpN7wn6KISYc_g0-13">
          <mxGeometry relative="1" as="geometry" />
        </mxCell>
        <mxCell id="Q46YlYpN7wn6KISYc_g0-8" value="" style="ellipse;whiteSpace=wrap;html=1;rounded=1;arcSize=0;" vertex="1" parent="WIyWlLk6GJQsqaUBKTNV-1">
          <mxGeometry x="390" y="-160" width="120" height="80" as="geometry" />
        </mxCell>
        <mxCell id="Q46YlYpN7wn6KISYc_g0-24" value="" style="edgeStyle=orthogonalEdgeStyle;rounded=0;orthogonalLoop=1;jettySize=auto;html=1;" edge="1" parent="WIyWlLk6GJQsqaUBKTNV-1" source="Q46YlYpN7wn6KISYc_g0-9" target="Q46YlYpN7wn6KISYc_g0-21">
          <mxGeometry relative="1" as="geometry" />
        </mxCell>
        <mxCell id="Q46YlYpN7wn6KISYc_g0-26" value="" style="edgeStyle=orthogonalEdgeStyle;rounded=0;orthogonalLoop=1;jettySize=auto;html=1;" edge="1" parent="WIyWlLk6GJQsqaUBKTNV-1" source="Q46YlYpN7wn6KISYc_g0-9" target="Q46YlYpN7wn6KISYc_g0-3">
          <mxGeometry relative="1" as="geometry" />
        </mxCell>
        <mxCell id="Q46YlYpN7wn6KISYc_g0-9" value="" style="ellipse;whiteSpace=wrap;html=1;rounded=1;arcSize=0;" vertex="1" parent="WIyWlLk6GJQsqaUBKTNV-1">
          <mxGeometry x="230" y="-124" width="120" height="80" as="geometry" />
        </mxCell>
        <mxCell id="Q46YlYpN7wn6KISYc_g0-10" value="" style="ellipse;whiteSpace=wrap;html=1;rounded=1;arcSize=0;" vertex="1" parent="WIyWlLk6GJQsqaUBKTNV-1">
          <mxGeometry x="250" y="-88" width="120" height="80" as="geometry" />
        </mxCell>
        <mxCell id="Q46YlYpN7wn6KISYc_g0-11" value="" style="ellipse;whiteSpace=wrap;html=1;rounded=1;arcSize=0;" vertex="1" parent="WIyWlLk6GJQsqaUBKTNV-1">
          <mxGeometry x="660" y="-110" width="120" height="80" as="geometry" />
        </mxCell>
        <mxCell id="Q46YlYpN7wn6KISYc_g0-12" value="" style="ellipse;whiteSpace=wrap;html=1;rounded=1;arcSize=0;" vertex="1" parent="WIyWlLk6GJQsqaUBKTNV-1">
          <mxGeometry x="390" y="-52" width="120" height="80" as="geometry" />
        </mxCell>
        <mxCell id="Q46YlYpN7wn6KISYc_g0-16" value="" style="edgeStyle=orthogonalEdgeStyle;rounded=0;orthogonalLoop=1;jettySize=auto;html=1;" edge="1" parent="WIyWlLk6GJQsqaUBKTNV-1" source="Q46YlYpN7wn6KISYc_g0-13" target="Q46YlYpN7wn6KISYc_g0-15">
          <mxGeometry relative="1" as="geometry" />
        </mxCell>
        <mxCell id="Q46YlYpN7wn6KISYc_g0-13" value="" style="ellipse;whiteSpace=wrap;html=1;rounded=1;arcSize=0;" vertex="1" parent="WIyWlLk6GJQsqaUBKTNV-1">
          <mxGeometry x="390" y="-320" width="120" height="80" as="geometry" />
        </mxCell>
        <mxCell id="Q46YlYpN7wn6KISYc_g0-18" value="" style="edgeStyle=orthogonalEdgeStyle;rounded=0;orthogonalLoop=1;jettySize=auto;html=1;" edge="1" parent="WIyWlLk6GJQsqaUBKTNV-1" source="Q46YlYpN7wn6KISYc_g0-15" target="Q46YlYpN7wn6KISYc_g0-17">
          <mxGeometry relative="1" as="geometry" />
        </mxCell>
        <mxCell id="Q46YlYpN7wn6KISYc_g0-15" value="" style="ellipse;whiteSpace=wrap;html=1;rounded=1;arcSize=0;" vertex="1" parent="WIyWlLk6GJQsqaUBKTNV-1">
          <mxGeometry x="590" y="-320" width="120" height="80" as="geometry" />
        </mxCell>
        <mxCell id="Q46YlYpN7wn6KISYc_g0-17" value="" style="ellipse;whiteSpace=wrap;html=1;rounded=1;arcSize=0;" vertex="1" parent="WIyWlLk6GJQsqaUBKTNV-1">
          <mxGeometry x="590" y="-160" width="120" height="80" as="geometry" />
        </mxCell>
        <mxCell id="Q46YlYpN7wn6KISYc_g0-22" value="" style="edgeStyle=orthogonalEdgeStyle;rounded=0;orthogonalLoop=1;jettySize=auto;html=1;" edge="1" parent="WIyWlLk6GJQsqaUBKTNV-1" source="Q46YlYpN7wn6KISYc_g0-19" target="Q46YlYpN7wn6KISYc_g0-21">
          <mxGeometry relative="1" as="geometry" />
        </mxCell>
        <mxCell id="Q46YlYpN7wn6KISYc_g0-28" value="" style="edgeStyle=orthogonalEdgeStyle;rounded=0;orthogonalLoop=1;jettySize=auto;html=1;" edge="1" parent="WIyWlLk6GJQsqaUBKTNV-1" source="Q46YlYpN7wn6KISYc_g0-19" target="Q46YlYpN7wn6KISYc_g0-3">
          <mxGeometry relative="1" as="geometry" />
        </mxCell>
        <mxCell id="Q46YlYpN7wn6KISYc_g0-19" value="" style="ellipse;whiteSpace=wrap;html=1;rounded=1;arcSize=0;" vertex="1" parent="WIyWlLk6GJQsqaUBKTNV-1">
          <mxGeometry x="60" y="-320" width="120" height="80" as="geometry" />
        </mxCell>
        <mxCell id="Q46YlYpN7wn6KISYc_g0-23" value="" style="edgeStyle=orthogonalEdgeStyle;rounded=0;orthogonalLoop=1;jettySize=auto;html=1;" edge="1" parent="WIyWlLk6GJQsqaUBKTNV-1" source="Q46YlYpN7wn6KISYc_g0-21" target="Q46YlYpN7wn6KISYc_g0-9">
          <mxGeometry relative="1" as="geometry" />
        </mxCell>
        <mxCell id="Q46YlYpN7wn6KISYc_g0-25" value="" style="edgeStyle=orthogonalEdgeStyle;rounded=0;orthogonalLoop=1;jettySize=auto;html=1;" edge="1" parent="WIyWlLk6GJQsqaUBKTNV-1" source="Q46YlYpN7wn6KISYc_g0-21" target="Q46YlYpN7wn6KISYc_g0-9">
          <mxGeometry relative="1" as="geometry" />
        </mxCell>
        <mxCell id="Q46YlYpN7wn6KISYc_g0-21" value="" style="ellipse;whiteSpace=wrap;html=1;rounded=1;arcSize=0;" vertex="1" parent="WIyWlLk6GJQsqaUBKTNV-1">
          <mxGeometry x="260" y="-320" width="120" height="80" as="geometry" />
        </mxCell>
        <mxCell id="Q46YlYpN7wn6KISYc_g0-32" value="" style="edgeStyle=orthogonalEdgeStyle;rounded=0;orthogonalLoop=1;jettySize=auto;html=1;" edge="1" parent="WIyWlLk6GJQsqaUBKTNV-1" source="Q46YlYpN7wn6KISYc_g0-29" target="Q46YlYpN7wn6KISYc_g0-31">
          <mxGeometry relative="1" as="geometry" />
        </mxCell>
        <mxCell id="Q46YlYpN7wn6KISYc_g0-29" value="" style="ellipse;whiteSpace=wrap;html=1;rounded=1;arcSize=0;" vertex="1" parent="WIyWlLk6GJQsqaUBKTNV-1">
          <mxGeometry x="60" width="120" height="80" as="geometry" />
        </mxCell>
        <mxCell id="Q46YlYpN7wn6KISYc_g0-34" value="" style="edgeStyle=orthogonalEdgeStyle;rounded=0;orthogonalLoop=1;jettySize=auto;html=1;" edge="1" parent="WIyWlLk6GJQsqaUBKTNV-1" source="Q46YlYpN7wn6KISYc_g0-31" target="Q46YlYpN7wn6KISYc_g0-33">
          <mxGeometry relative="1" as="geometry" />
        </mxCell>
        <mxCell id="Q46YlYpN7wn6KISYc_g0-31" value="" style="ellipse;whiteSpace=wrap;html=1;rounded=1;arcSize=0;" vertex="1" parent="WIyWlLk6GJQsqaUBKTNV-1">
          <mxGeometry x="60" y="160" width="120" height="80" as="geometry" />
        </mxCell>
        <mxCell id="Q46YlYpN7wn6KISYc_g0-36" value="" style="edgeStyle=orthogonalEdgeStyle;rounded=0;orthogonalLoop=1;jettySize=auto;html=1;" edge="1" parent="WIyWlLk6GJQsqaUBKTNV-1" source="Q46YlYpN7wn6KISYc_g0-33" target="Q46YlYpN7wn6KISYc_g0-35">
          <mxGeometry relative="1" as="geometry" />
        </mxCell>
        <mxCell id="Q46YlYpN7wn6KISYc_g0-33" value="" style="ellipse;whiteSpace=wrap;html=1;rounded=1;arcSize=0;" vertex="1" parent="WIyWlLk6GJQsqaUBKTNV-1">
          <mxGeometry x="60" y="320" width="120" height="80" as="geometry" />
        </mxCell>
        <mxCell id="Q46YlYpN7wn6KISYc_g0-35" value="" style="ellipse;whiteSpace=wrap;html=1;rounded=1;arcSize=0;" vertex="1" parent="WIyWlLk6GJQsqaUBKTNV-1">
          <mxGeometry x="260" y="320" width="120" height="80" as="geometry" />
        </mxCell>
      </root>
    </mxGraphModel>
  </diagram>
</mxfile>
